<svg width="28" height="28" viewBox="0 0 28 28" fill="none" xmlns="http://www.w3.org/2000/svg">
<path d="M22.1666 15.5866H2.33325C1.85492 15.5866 1.45825 15.19 1.45825 14.7116C1.45825 14.2333 1.85492 13.8366 2.33325 13.8366H22.1666C22.6449 13.8366 23.0416 14.2333 23.0416 14.7116C23.0416 15.19 22.6449 15.5866 22.1666 15.5866Z" fill="#696969"/>
<path d="M17.7565 25.375H6.74329C2.74162 25.375 1.45825 24.1033 1.45825 20.1483V11.9933C1.45825 8.855 2.16994 7 5.78661 6.79C6.08994 6.77833 6.40495 6.76666 6.74329 6.76666H17.7565C21.7582 6.76666 23.0416 8.03833 23.0416 11.9933V20.335C22.9949 24.15 21.7115 25.375 17.7565 25.375ZM6.74329 8.51666C6.42829 8.51666 6.13662 8.52833 5.86829 8.54C3.77995 8.66833 3.20825 9.11166 3.20825 11.9933V20.1483C3.20825 23.135 3.69829 23.625 6.74329 23.625H17.7565C20.7666 23.625 21.2566 23.1583 21.2916 20.3233V11.9933C21.2916 9.00666 20.8015 8.51666 17.7565 8.51666H6.74329Z" fill="#696969"/>
<path d="M22.1666 21.21C21.9449 21.21 21.7232 21.1283 21.5716 20.9767C21.3966 20.8133 21.2916 20.58 21.2916 20.335V11.9933C21.2916 9.00667 20.8016 8.51667 17.7566 8.51667H6.74329C6.42829 8.51667 6.13662 8.52833 5.86829 8.54C5.63495 8.55167 5.40156 8.45833 5.22656 8.295C5.05156 8.13167 4.95825 7.89833 4.95825 7.65333C5.00492 3.85 6.28829 2.625 10.2433 2.625H21.2565C25.2582 2.625 26.5416 3.89667 26.5416 7.85167V16.0067C26.5416 19.145 25.8299 21 22.2132 21.21C22.2016 21.21 22.1783 21.21 22.1666 21.21ZM6.74329 6.76667H17.7566C21.7582 6.76667 23.0416 8.03833 23.0416 11.9933V19.3667C24.3949 19.1217 24.7916 18.4217 24.7916 16.0067V7.85167C24.7916 4.865 24.3015 4.375 21.2565 4.375H10.2433C7.58329 4.375 6.89495 4.73667 6.74329 6.76667Z" fill="#696969"/>
<path d="M8.12023 21.6533H6.11353C5.63519 21.6533 5.23853 21.2567 5.23853 20.7783C5.23853 20.3 5.63519 19.9033 6.11353 19.9033H8.12023C8.59856 19.9033 8.99523 20.3 8.99523 20.7783C8.99523 21.2567 8.61023 21.6533 8.12023 21.6533Z" fill="#696969"/>
<path d="M14.6415 21.6533H10.6282C10.1498 21.6533 9.75317 21.2567 9.75317 20.7783C9.75317 20.3 10.1498 19.9033 10.6282 19.9033H14.6415C15.1198 19.9033 15.5165 20.3 15.5165 20.7783C15.5165 21.2567 15.1315 21.6533 14.6415 21.6533Z" fill="#696969"/>
</svg>
