<svg width="28" height="28" viewBox="0 0 28 28" fill="none" xmlns="http://www.w3.org/2000/svg">
<path d="M15.6333 20.3233H12.7049C10.7916 20.3233 9.23994 18.7133 9.23994 16.73C9.23994 16.2517 9.63661 15.855 10.1149 15.855C10.5933 15.855 10.9899 16.2517 10.9899 16.73C10.9899 17.745 11.7599 18.5733 12.7049 18.5733H15.6333C16.3916 18.5733 17.0216 17.8967 17.0216 17.08C17.0216 16.065 16.6599 15.8667 16.0649 15.6567L11.3633 14C10.4533 13.685 9.22827 13.0083 9.22827 10.92C9.22827 9.12333 10.6399 7.67667 12.3666 7.67667H15.2949C17.2083 7.67667 18.7599 9.28667 18.7599 11.27C18.7599 11.7483 18.3633 12.145 17.8849 12.145C17.4066 12.145 17.0099 11.7483 17.0099 11.27C17.0099 10.255 16.2399 9.42667 15.2949 9.42667H12.3666C11.6083 9.42667 10.9783 10.1033 10.9783 10.92C10.9783 11.935 11.3399 12.1333 11.9349 12.3433L16.6366 14C17.5466 14.315 18.7716 14.9917 18.7716 17.08C18.7599 18.865 17.3599 20.3233 15.6333 20.3233Z" fill="#696969"/>
<path d="M14 21.875C13.5217 21.875 13.125 21.4783 13.125 21V7C13.125 6.52167 13.5217 6.125 14 6.125C14.4783 6.125 14.875 6.52167 14.875 7V21C14.875 21.4783 14.4783 21.875 14 21.875Z" fill="#696969"/>
<path d="M13.9999 26.5417C7.08159 26.5417 1.45825 20.9183 1.45825 14C1.45825 7.08168 7.08159 1.45834 13.9999 1.45834C20.9183 1.45834 26.5416 7.08168 26.5416 14C26.5416 20.9183 20.9183 26.5417 13.9999 26.5417ZM13.9999 3.20834C8.04992 3.20834 3.20825 8.05001 3.20825 14C3.20825 19.95 8.04992 24.7917 13.9999 24.7917C19.9499 24.7917 24.7916 19.95 24.7916 14C24.7916 8.05001 19.9499 3.20834 13.9999 3.20834Z" fill="#696969"/>
</svg>
