<svg width="28" height="28" viewBox="0 0 28 28" fill="none" xmlns="http://www.w3.org/2000/svg">
<path d="M21.3733 14.875H17.5C14.595 14.875 13.125 13.23 13.125 9.97501V6.62667C13.125 5.43667 13.265 3.73334 14.5017 2.80001C15.54 2.03 17.0333 1.97167 19.2383 2.61334C22.1317 3.45334 24.5467 5.86834 25.3867 8.76167C26.0283 10.955 25.97 12.46 25.2 13.4867C24.2667 14.735 22.5633 14.875 21.3733 14.875ZM16.66 3.92C16.1817 3.92 15.8083 4.01334 15.5633 4.2C15.1083 4.53834 14.8867 5.33167 14.8867 6.62667V9.98667C14.8867 12.6 15.89 13.1367 17.5117 13.1367H21.385C22.6683 13.1367 23.4617 12.915 23.8117 12.46C24.22 11.9233 24.185 10.85 23.73 9.275C23.0533 6.97667 21.07 4.98167 18.7717 4.31667C17.9083 4.04834 17.2083 3.92 16.66 3.92Z" fill="#696969"/>
<path d="M12.9151 26.5417C12.2968 26.5417 11.6668 26.495 11.0368 26.39C6.26511 25.62 2.38011 21.7467 1.61011 16.975C0.61844 10.8383 4.57344 5.05166 10.6284 3.815C11.1068 3.72166 11.5618 4.025 11.6668 4.49166C11.7601 4.97 11.4568 5.425 10.9901 5.53C5.86844 6.58 2.50844 11.48 3.36011 16.695C4.01344 20.7317 7.29177 24.01 11.3284 24.6633C16.5668 25.5033 21.4551 22.1317 22.4934 16.9867C22.5868 16.5083 23.0534 16.205 23.5201 16.2983C23.9984 16.3917 24.3018 16.8583 24.2084 17.325C23.1001 22.7733 18.3401 26.5417 12.9151 26.5417Z" fill="#696969"/>
</svg>
