<svg width="30" height="30" viewBox="0 0 30 30" fill="none" xmlns="http://www.w3.org/2000/svg">
<path d="M25.0501 8.52501L17.85 3.48751C15.8875 2.11251 12.875 2.18751 10.9875 3.65001L4.72505 8.53751C3.47505 9.51251 2.48755 11.5125 2.48755 13.0875V21.7125C2.48755 24.9 5.07505 27.5 8.26255 27.5H21.7375C24.925 27.5 27.5126 24.9125 27.5126 21.725V13.25C27.5126 11.5625 26.4251 9.48751 25.0501 8.52501ZM21.1 16.75C21.1 17.2375 20.7125 17.625 20.225 17.625C19.7375 17.625 19.35 17.2375 19.35 16.75V16.525L15.95 19.925C15.7625 20.1125 15.5125 20.2 15.25 20.175C15 20.15 14.7625 20 14.625 19.7875L13.35 17.8875L10.375 20.8625C10.2 21.0375 9.98755 21.1125 9.76255 21.1125C9.53755 21.1125 9.31255 21.025 9.15005 20.8625C8.81255 20.525 8.81255 19.975 9.15005 19.625L12.875 15.9C13.0625 15.7125 13.3125 15.625 13.575 15.65C13.8375 15.675 14.075 15.8125 14.2125 16.0375L15.4875 17.9375L18.125 15.3H17.9C17.4125 15.3 17.025 14.9125 17.025 14.425C17.025 13.9375 17.4125 13.55 17.9 13.55H20.225C20.3375 13.55 20.4501 13.575 20.5625 13.6125C20.775 13.7 20.95 13.875 21.0375 14.0875C21.0875 14.2 21.1 14.3125 21.1 14.425V16.75Z" fill="white"/>
</svg>
