<svg width="30" height="30" viewBox="0 0 30 30" fill="none" xmlns="http://www.w3.org/2000/svg">
<path d="M23.125 15.8125V20.4375C23.125 24.3375 19.4875 27.5 15 27.5C10.5125 27.5 6.875 24.3375 6.875 20.4375V15.8125C6.875 19.7125 10.5125 22.5 15 22.5C19.4875 22.5 23.125 19.7125 23.125 15.8125Z" stroke="#9B9B9B" stroke-width="1.5" stroke-linecap="round" stroke-linejoin="round"/>
<path d="M23.125 9.5625C23.125 10.7 22.8125 11.75 22.2625 12.65C20.925 14.85 18.175 16.25 15 16.25C11.825 16.25 9.075 14.85 7.7375 12.65C7.1875 11.75 6.875 10.7 6.875 9.5625C6.875 7.6125 7.78749 5.85 9.24999 4.575C10.725 3.2875 12.75 2.5 15 2.5C17.25 2.5 19.275 3.2875 20.75 4.5625C22.2125 5.85 23.125 7.6125 23.125 9.5625Z" stroke="#9B9B9B" stroke-width="1.5" stroke-linecap="round" stroke-linejoin="round"/>
<path d="M23.125 9.5625V15.8125C23.125 19.7125 19.4875 22.5 15 22.5C10.5125 22.5 6.875 19.7125 6.875 15.8125V9.5625C6.875 5.6625 10.5125 2.5 15 2.5C17.25 2.5 19.275 3.2875 20.75 4.5625C22.2125 5.85 23.125 7.6125 23.125 9.5625Z" stroke="#9B9B9B" stroke-width="1.5" stroke-linecap="round" stroke-linejoin="round"/>
</svg>
