<svg width="24" height="24" viewBox="0 0 24 24" fill="none" xmlns="http://www.w3.org/2000/svg">
<g opacity="0.5">
<path fill-rule="evenodd" clip-rule="evenodd" d="M18.1964 5.99009L18.567 3.76618C18.7463 2.69122 17.9128 1.65852 16.8307 1.78683C15.5677 1.93656 14.1495 2.37271 13.1929 3.62403C12.6163 3.52687 12.0217 3.47607 11.4141 3.47607C8.84796 3.47607 6.5146 4.38197 4.77981 5.86116C4.73827 5.82063 4.69351 5.78246 4.64558 5.74699C3.90871 5.20167 3.25372 4.47884 2.91886 3.58152C2.6706 2.91626 1.93005 2.5782 1.26478 2.82644C0.599513 3.07471 0.261454 3.81526 0.509708 4.48052C1.06253 5.96198 2.08888 7.04546 3.07675 7.78481C2.21145 9.10421 1.71435 10.6463 1.71435 12.294C1.71435 13.9467 2.21448 15.4932 3.08467 16.8152C3.0095 16.9877 2.94912 17.1696 2.90541 17.3595L2.44404 19.3647C2.06184 21.0257 3.09861 22.6822 4.7597 23.0643C6.42081 23.4466 8.07722 22.4098 8.45942 20.7487L8.47094 20.6988C9.39917 20.9671 10.388 21.1119 11.4141 21.1119C12.1522 21.1119 12.8711 21.037 13.562 20.8951C14.0051 22.4702 15.6125 23.4353 17.2244 23.0643C18.8526 22.6898 19.8808 21.0908 19.5611 19.4635L22.3434 18.0722C22.9408 17.7735 23.3183 17.1627 23.3183 16.4948V12.294C23.3183 11.32 22.5287 10.5304 21.5546 10.5304H20.9198C20.5266 8.76972 19.5565 7.19952 18.1964 5.99009ZM12.2959 8.35786C12.8876 8.35786 13.3673 7.87817 13.3673 7.28643C13.3673 6.6947 12.8876 6.215 12.2959 6.215H9.61738C9.02565 6.215 8.54596 6.6947 8.54596 7.28643C8.54596 7.87817 9.02565 8.35786 9.61738 8.35786H12.2959ZM17.1457 9.55244C17.7374 9.55244 18.2171 10.0321 18.2171 10.6239V12.2939C18.2171 12.8856 17.7374 13.3653 17.1457 13.3653C16.554 13.3653 16.0743 12.8856 16.0743 12.2939V10.6239C16.0743 10.0321 16.554 9.55244 17.1457 9.55244Z" fill="#FE2C5E"/>
</g>
</svg>
