<svg width="52" height="52" viewBox="0 0 52 52" fill="none" xmlns="http://www.w3.org/2000/svg">
<path d="M51.9998 21.6667C51.9998 33.6328 42.2993 43.3333 30.3332 43.3333C18.367 43.3333 8.6665 33.6328 8.6665 21.6667C8.6665 9.70049 18.367 0 30.3332 0C42.2993 0 51.9998 9.70049 51.9998 21.6667Z" fill="#6438E1"/>
<path fill-rule="evenodd" clip-rule="evenodd" d="M0 24.9167C0 28.1195 1.2636 31.0273 3.31944 33.1686L21.6667 52L39.7056 33.4783C41.9427 31.312 43.3333 28.2767 43.3333 24.9167C43.3333 18.3353 37.9981 13 31.4167 13C27.3863 13 23.8233 15.0008 21.6667 18.0633C19.51 15.0008 15.947 13 11.9167 13C5.33525 13 0 18.3353 0 24.9167ZM31.8504 27.0052C32.7047 26.1673 32.7181 24.7956 31.8802 23.9412C31.0423 23.0869 29.6706 23.0736 28.8162 23.9114L20.9445 31.6319L17.7671 28.5156C16.9128 27.6778 15.541 27.6911 14.7031 28.5454C13.8653 29.3997 13.8786 30.7715 14.7329 31.6094L19.4273 36.2136C20.2699 37.0399 21.6189 37.0399 22.4616 36.2136L31.8504 27.0052Z" fill="white" fill-opacity="0.4"/>
</svg>
