<svg width="54" height="52" viewBox="0 0 54 52" fill="none" xmlns="http://www.w3.org/2000/svg">
<path d="M15.6424 33.0007C21.0772 27.9386 25.9509 24.8697 33.75 24.8697C41.5491 24.8697 46.4228 27.9386 51.8574 33.0007C54.2717 35.2494 54.6458 38.9083 52.9791 41.5937C52.3783 42.5609 51.2274 42.9566 50.0929 42.9566H17.4072C16.2727 42.9566 15.1215 42.5609 14.5211 41.5937C12.8543 38.9083 13.2281 35.2494 15.6424 33.0007Z" fill="#6438E1"/>
<path d="M33.75 20.3478C39.3419 20.3478 43.875 15.7928 43.875 10.1739C43.875 4.55503 39.3419 0 33.75 0C28.1581 0 23.625 4.55503 23.625 10.1739C23.625 15.7928 28.1581 20.3478 33.75 20.3478Z" fill="#6438E1"/>
<path d="M2.14238 42.0441C7.5772 36.9819 12.4509 33.913 20.25 33.913C28.0491 33.913 32.9228 36.9819 38.3576 42.0441C40.7719 44.2928 41.1457 47.9519 39.4789 50.6372C38.8785 51.6043 37.7273 52 36.5928 52H3.90723C2.77272 52 1.62145 51.6043 1.02109 50.6372C-0.64565 47.9519 -0.271925 44.2928 2.14238 42.0441Z" fill="white" fill-opacity="0.4"/>
<path d="M20.25 29.3912C25.8419 29.3912 30.375 24.8362 30.375 19.2173C30.375 13.5984 25.8419 9.04338 20.25 9.04338C14.6581 9.04338 10.125 13.5984 10.125 19.2173C10.125 24.8362 14.6581 29.3912 20.25 29.3912Z" fill="white" fill-opacity="0.4"/>
</svg>
