<svg width="62" height="52" viewBox="0 0 62 52" fill="none" xmlns="http://www.w3.org/2000/svg">
<path d="M10.7724 14.3762C10.3426 13.8164 10.4272 13.015 10.9645 12.5587L25.3844 0.311352C25.6211 0.110301 25.9209 0 26.2306 0H46.2679C46.5776 0 46.8774 0.110301 47.1141 0.311352L61.5344 12.5587C62.0711 13.015 62.1558 13.8164 61.726 14.3762L37.2876 46.2028C36.7622 46.8869 35.7363 46.8869 35.211 46.2028L10.7724 14.3762Z" fill="#5038E1"/>
<path d="M0.274031 19.6601C-0.155808 19.1003 -0.0711656 18.2989 0.466084 17.8427L14.886 5.5953C15.1227 5.39425 15.4225 5.28395 15.7322 5.28395H35.7695C36.0792 5.28395 36.379 5.39425 36.6157 5.5953L51.0356 17.8427C51.5729 18.2989 51.6575 19.1003 51.2277 19.6601L26.7891 51.4869C26.2638 52.1711 25.2379 52.1711 24.7126 51.4869L0.274031 19.6601Z" fill="white" fill-opacity="0.4"/>
<path d="M10.343 19.3959C10.1347 18.9438 10.1969 18.4122 10.5038 18.0212L20.1076 5.78597C20.3565 5.46887 20.7358 5.28394 21.1373 5.28394H24.4385C25.1633 5.28394 25.7508 5.87533 25.7508 6.60491V18.6588V46.8508C25.7508 48.2659 23.8395 48.6903 23.248 47.4065L10.343 19.3959Z" fill="white" fill-opacity="0.6"/>
<path d="M41.1587 19.3959C41.3669 18.9438 41.3047 18.4122 40.9979 18.0212L32.6797 7.42384C31.9998 6.55768 32.6127 5.28394 33.7094 5.28394H35.7695C36.0792 5.28394 36.379 5.39424 36.6157 5.59529L51.0357 17.8426C51.5729 18.2989 51.6576 19.1003 51.2277 19.6601L32.8934 43.5371C31.9369 44.7828 30.0066 43.6018 30.6646 42.1734L41.1587 19.3959Z" fill="white" fill-opacity="0.4"/>
</svg>
